<?xml version="1.0" encoding="utf-8"?>
<!-- Generator: Adobe Illustrator 24.0.3, SVG Export Plug-In . SVG Version: 6.00 Build 0)  -->
<svg version="1.1" id="Layer_1" xmlns="http://www.w3.org/2000/svg" xmlns:xlink="http://www.w3.org/1999/xlink" x="0px"
  y="0px" viewBox="0 0 510.4 480.8" style="enable-background:new 0 0 510.4 480.8;" xml:space="preserve">
  <style type="text/css">
    .st0 {
      fill: #5C2D91;
    }

    .st1 {
      fill: #F8A51C;
    }
  </style>
  <title>Brandmark_icon_black</title>
  <g>
    <path class="st0" d="M359,146.8c-2-2.3-4.8-3.5-7.9-3.4H172.6c-3.1-0.1-5.9,1.2-7.9,3.4c-2.1,2.2-3,5.3-2.5,8.3l12.8,122.4
		c0.8,7.2,6.7,16.2,12.8,20l63.1,37.2c7.1,3.7,15.4,3.7,22.4,0l63.1-37.2c6.3-3.4,11.9-12.8,12.8-20l12.8-122.4
		C361.9,152.2,361,149.1,359,146.8z M307.3,282.4c-5.2,3.4-12.2,2.1-15.6-3l-32.3-47.3l-19.5,19.6v21.5c0,6.1-5.1,11.2-11.2,11.2
		s-11.2-5-11.2-11.2v-93.4c0-6.1,5.1-11.2,11.2-11.2s11.2,5,11.2,11.2V220l48.1-48.1c4.4-4.4,11.6-4.4,15.9,0s4.4,11.6,0,15.9
		L275.5,216c0.1,0.1,0.1,0.2,0.2,0.3l34.5,50.4C313.7,272,312.4,278.9,307.3,282.4L307.3,282.4z" />
    <polygon id="_Clipping_Path_4" class="st1" points="152.4,175.9 131.4,178.5 139.2,241.4 159.2,239.1 	" />
  </g>
</svg>